<svg xmlns="http://www.w3.org/2000/svg" viewBox="0 0 220 200">
  <style>@import url('https://fonts.googleapis.com/css2?family=DM+Sans:wght@700&amp;display=swap');</style>
  <rect width="220" height="200" rx="28" fill="#1C1006"/>
  <g transform="translate(110, 100)">
    <path d="M-10 -24 C-10 -34 -16 -36 -12 -46" fill="none" stroke="#E8820C" stroke-width="2.2" stroke-linecap="round" opacity="0.5"/>
    <path d="M0 -28 C0 -38 -4 -42 -2 -50" fill="none" stroke="#E8820C" stroke-width="2.2" stroke-linecap="round" opacity="0.7"/>
    <path d="M10 -24 C10 -34 16 -36 12 -46" fill="none" stroke="#E8820C" stroke-width="2.2" stroke-linecap="round" opacity="0.45"/>
    <rect x="-34" y="-20" width="68" height="8" rx="4" fill="#E8820C"/>
    <path d="M-30 -14 C-30 -14 -32 10 -28 18 C-24 26 -8 30 0 30 C8 30 24 26 28 18 C32 10 30 -14 30 -14 Z" fill="#E8820C"/>
    <path d="M-34 -16 C-42 -16 -44 -8 -38 -6" fill="none" stroke="#E8820C" stroke-width="3" stroke-linecap="round"/>
    <path d="M34 -16 C42 -16 44 -8 38 -6" fill="none" stroke="#E8820C" stroke-width="3" stroke-linecap="round"/>
  </g>
  <text x="110" y="156" text-anchor="middle" fill="#FAF0DC" font-family="DM Sans, sans-serif" font-size="14" font-weight="700" letter-spacing="3">CHOWCIPE</text>
  <text x="110" y="174" text-anchor="middle" fill="#B8956A" font-family="DM Sans, sans-serif" font-size="9" font-weight="500" letter-spacing="2.5">COOK WHAT YOU HAVE</text>
</svg>
